<svg data-v-423bf9ae="" xmlns="http://www.w3.org/2000/svg" viewBox="0 0 334 183" class="iconLeft"><!----><!----><!----><g data-v-423bf9ae="" id="4a898f12-0123-4668-a551-ed24afec3cab" fill="#1C484D" transform="matrix(5.665722370147705,0,0,5.665722370147705,154.89022827148438,43.11813735961914)"><path d="M4.42 13.75L4.42 13.75Q3.23 13.75 2.11 13.45L2.11 13.45L2.11 13.45Q0.99 13.16 0.29 12.67L0.29 12.67L1.20 10.63L1.20 10.63Q1.86 11.06 2.73 11.33L2.73 11.33L2.73 11.33Q3.60 11.59 4.44 11.59L4.44 11.59L4.44 11.59Q6.03 11.59 6.03 10.79L6.03 10.79L6.03 10.79Q6.03 10.37 5.58 10.17L5.58 10.17L5.58 10.17Q5.12 9.97 4.12 9.74L4.12 9.74L4.12 9.74Q3.01 9.51 2.27 9.23L2.27 9.23L2.27 9.23Q1.53 8.96 0.99 8.36L0.99 8.36L0.99 8.36Q0.46 7.76 0.46 6.73L0.46 6.73L0.46 6.73Q0.46 5.84 0.95 5.12L0.95 5.12L0.95 5.12Q1.44 4.40 2.42 3.98L2.42 3.98L2.42 3.98Q3.39 3.56 4.80 3.56L4.80 3.56L4.80 3.56Q5.77 3.56 6.71 3.77L6.71 3.77L6.71 3.77Q7.64 3.99 8.36 4.41L8.36 4.41L7.50 6.47L7.50 6.47Q6.10 5.71 4.79 5.71L4.79 5.71L4.79 5.71Q3.96 5.71 3.58 5.96L3.58 5.96L3.58 5.96Q3.21 6.20 3.21 6.59L3.21 6.59L3.21 6.59Q3.21 6.99 3.65 7.18L3.65 7.18L3.65 7.18Q4.10 7.38 5.10 7.59L5.10 7.59L5.10 7.59Q6.22 7.83 6.95 8.10L6.95 8.10L6.95 8.10Q7.69 8.37 8.22 8.97L8.22 8.97L8.22 8.97Q8.76 9.56 8.76 10.58L8.76 10.58L8.76 10.58Q8.76 11.47 8.27 12.18L8.27 12.18L8.27 12.18Q7.78 12.89 6.80 13.32L6.80 13.32L6.80 13.32Q5.82 13.75 4.42 13.75L4.42 13.75ZM13.72 13.68L13.72 13.68Q12.50 13.68 11.52 13.17L11.52 13.17L11.52 13.17Q10.54 12.67 9.99 11.77L9.99 11.77L9.99 11.77Q9.44 10.88 9.44 9.74L9.44 9.74L9.44 9.74Q9.44 8.62 9.99 7.73L9.99 7.73L9.99 7.73Q10.54 6.83 11.52 6.33L11.52 6.33L11.52 6.33Q12.49 5.84 13.72 5.84L13.72 5.84L13.72 5.84Q14.95 5.84 15.93 6.33L15.93 6.33L15.93 6.33Q16.91 6.83 17.46 7.72L17.46 7.72L17.46 7.72Q18.00 8.61 18.00 9.74L18.00 9.74L18.00 9.74Q18.00 10.88 17.46 11.77L17.46 11.77L17.46 11.77Q16.91 12.67 15.93 13.17L15.93 13.17L15.93 13.17Q14.95 13.68 13.72 13.68L13.72 13.68ZM13.72 11.56L13.72 11.56Q14.42 11.56 14.87 11.08L14.87 11.08L14.87 11.08Q15.32 10.60 15.32 9.74L15.32 9.74L15.32 9.74Q15.32 8.90 14.87 8.43L14.87 8.43L14.87 8.43Q14.42 7.95 13.72 7.95L13.72 7.95L13.72 7.95Q13.02 7.95 12.57 8.43L12.57 8.43L12.57 8.43Q12.12 8.90 12.12 9.74L12.12 9.74L12.12 9.74Q12.12 10.60 12.57 11.08L12.57 11.08L12.57 11.08Q13.02 11.56 13.72 11.56L13.72 11.56ZM24.56 5.96L27.22 5.96L27.22 13.55L24.68 13.55L24.68 12.74L24.68 12.74Q24.26 13.20 23.67 13.44L23.67 13.44L23.67 13.44Q23.09 13.68 22.43 13.68L22.43 13.68L22.43 13.68Q20.96 13.68 20.08 12.81L20.08 12.81L20.08 12.81Q19.21 11.94 19.21 10.21L19.21 10.21L19.21 5.96L21.87 5.96L21.87 9.77L21.87 9.77Q21.87 10.63 22.19 11.02L22.19 11.02L22.19 11.02Q22.51 11.41 23.13 11.41L23.13 11.41L23.13 11.41Q23.76 11.41 24.16 10.97L24.16 10.97L24.16 10.97Q24.56 10.53 24.56 9.62L24.56 9.62L24.56 5.96ZM28.92 13.55L28.92 3.16L31.58 3.16L31.58 13.55L28.92 13.55Z"></path></g><!----><g data-v-423bf9ae="" id="6749fa90-15d2-4314-bc7f-2d5c3b3e3367" transform="matrix(1.4222190380096436,0,0,1.4222190380096436,-22.022109985351562,0.9780588746070862)" stroke="none" fill="#1C484D"><path d="M95.991 28.25a2 2 0 0 0-1.817-2.177 38.08 38.08 0 0 0-16.206 2.55c.024-.515.037-1.033.03-1.556C77.805 12.57 65.551 1.018 65.03.534a2.003 2.003 0 0 0-2.728.005c-.51.478-12.491 11.87-12.299 26.393.008.577.04 1.147.085 1.714a38.062 38.062 0 0 0-16.261-2.573 2 2 0 0 0-1.817 2.177c.047.516 1.271 12.698 10.122 19.739 6.706 5.335 15.668 6.014 19.8 6.014h4.138c4.133 0 13.095-.68 19.8-6.014 8.85-7.041 10.075-19.223 10.122-19.739zm-51.37 16.608c-5.478-4.358-7.553-11.359-8.277-14.852 3.196.036 9.344.54 14.54 3.471a43.311 43.311 0 0 0 8.804 16.439c-4.074-.259-10.35-1.306-15.067-5.058zm19.701 4.261c-3.06-3.337-10.186-12.173-10.32-22.24-.133-10.015 6.698-18.697 9.676-22 3.06 3.337 10.186 12.174 10.32 22.24.133 10.015-6.698 18.698-9.676 22zm19.057-4.261c-4.47 3.557-10.346 4.684-14.416 5.012a41 41 0 0 0 8.376-16.508c5.148-2.826 11.167-3.321 14.317-3.356-.724 3.494-2.8 10.494-8.277 14.852zM20.626 94.925A5.093 5.093 0 0 1 20 92.481V51.92a1.834 1.834 0 0 1 2.368-1.817 9.359 9.359 0 0 1 4.306 3.152l.247 29.026c.147-.087.29-.177.444-.255a18.812 18.812 0 0 1 3.543-1.315l-.198-23.274a8.272 8.272 0 0 1 4.76 4.946 15.404 15.404 0 0 1 .4 4.646c-.01.88.025 11.673.032 13.005a14.003 14.003 0 0 1 4.005.547l-.102-11.944c2.032 1.23 4.135 2.978 4.195 4.644v9.654a9.556 9.556 0 0 1 1.105 1.236q.158.215.297.445L48 88.9l-.001-15.692c-.169-4.785-5.767-7.968-8.251-9.149a17.016 17.016 0 0 0-.41-2.716 12.371 12.371 0 0 0-7.807-7.872c-1.342-2.922-4.822-6.406-8.191-7.25a5.663 5.663 0 0 0-5.697 1.554A5.966 5.966 0 0 0 16 51.92V92.48a9.107 9.107 0 0 0 1.12 4.37l11.027 20.058a5.92 5.92 0 0 1 .853 3.092v6a2 2 0 0 0 4 0v-6a9.812 9.812 0 0 0-1.347-5.018z"></path><path d="M41.924 86.555c-2.911-4.034-9.946-2.41-12.707-1.05a3.988 3.988 0 0 0-2.057 2.481 4.131 4.131 0 0 0 .453 3.306l7.864 12.704a2 2 0 0 0 3.402-2.104l-7.863-12.704c-.03-.046 0-.104-.03-.096 2.254-1.111 6.529-1.646 7.654-.25 0 0 9.329 15.687 9.363 15.735a5.381 5.381 0 0 1 .997 3.126V126a2 2 0 0 0 4 0v-18.297a9.413 9.413 0 0 0-1.698-5.389s-9.343-15.71-9.378-15.759zM110.357 47.776a5.663 5.663 0 0 0-5.697-1.553c-3.369.843-6.85 4.327-8.191 7.249a12.371 12.371 0 0 0-7.807 7.872 17.016 17.016 0 0 0-.41 2.716c-2.484 1.18-8.082 4.364-8.251 9.149V88.9l2.597-4.286q.139-.23.297-.445A9.556 9.556 0 0 1 84 82.934V73.28c.06-1.666 2.163-3.414 4.195-4.644l-.102 11.944a14.003 14.003 0 0 1 4.005-.547c.007-1.332.042-12.124.032-13.005a15.404 15.404 0 0 1 .4-4.646 8.272 8.272 0 0 1 4.76-4.946l-.198 23.274a18.812 18.812 0 0 1 3.543 1.315c.153.078.297.168.444.255l.247-29.026a9.359 9.359 0 0 1 4.306-3.152A1.834 1.834 0 0 1 108 51.919V92.48a5.093 5.093 0 0 1-.626 2.444l-11.027 20.058A9.812 9.812 0 0 0 95 120v6a2 2 0 0 0 4 0v-6a5.92 5.92 0 0 1 .853-3.092l11.027-20.058a9.107 9.107 0 0 0 1.12-4.37V51.92a5.966 5.966 0 0 0-1.643-4.143z"></path><path d="M100.84 87.986a3.988 3.988 0 0 0-2.057-2.481c-2.76-1.36-9.796-2.984-12.707 1.05-.035.048-9.378 15.76-9.378 15.76A9.413 9.413 0 0 0 75 107.702V126a2 2 0 0 0 4 0v-18.297a5.381 5.381 0 0 1 .997-3.126c.034-.048 9.363-15.735 9.363-15.735 1.125-1.396 5.4-.861 7.655.25-.03-.008-.001.05-.03.096l-7.864 12.704a2 2 0 0 0 3.402 2.104l7.864-12.704a4.131 4.131 0 0 0 .453-3.306z"></path></g><!----></svg>